# xmcd CD database file generated by OrangeCD 4.3
#
# Track frame offsets:
#	150
#	16460
#	31982
#
# Disc length: 637 seconds
#
# Revision: 0
# Processed by: cddbd v1.4PL0 Copyright (c) Steve Scherf et al.
# Submitted via: OrangeCD 4.3
#
DISCID=1a027b03
DTITLE=Del Shannon - Walk away
DYEAR=1900
DGENRE=Country
TTITLE0=Walk away
TTITLE1=Nobody's business
TTITLE2=Let's dance
EXTD=
EXTT0=
EXTT1=
EXTT2=
PLAYORDER=
